# xmcd
#
# Track frame offsets: 
#        150
#        24630
#        43782
#        59957
#        72800
#        94757
#        114060
#        128440
#        146427
#        166780
#        195142
#        209652
#
# Disc length: 2967 seconds
#
# Revision: 0
# Processed by: cddbd v1.4PL0 Copyright (c) Steve Scherf et al.
# Submitted via: ExactAudioCopy v0.95a3
#
DISCID=a10b950c
DTITLE=Roger Sutcliffe - Under The Rubber Eagle
DYEAR=2003
DGENRE=Blues
TTITLE0=Living With The Blues
TTITLE1=World Full of Strangers
TTITLE2=Stormy Monday Blues
TTITLE3=I´m Sober Now
TTITLE4=You Don´t Miss Your Water
TTITLE5=Highway 61
TTITLE6=Corinna Corinna
TTITLE7=St. James Infirmary
TTITLE8=Crazy Blues
TTITLE9=Georgia On My Mind
TTITLE10=Unter dem Gummi Adler
TTITLE11=Troubling Mind
EXTD=
EXTT0=
EXTT1=
EXTT2=
EXTT3=
EXTT4=
EXTT5=
EXTT6=
EXTT7=
EXTT8=
EXTT9=
EXTT10=
EXTT11=
PLAYORDER=
